<?xml version="1.0" encoding="utf-8"?>
<!-- Generator: Adobe Illustrator 25.2.0, SVG Export Plug-In . SVG Version: 6.00 Build 0)  -->
<svg version="1.1" id="Layer_1" xmlns="http://www.w3.org/2000/svg" xmlns:xlink="http://www.w3.org/1999/xlink" x="0px" y="0px"
	 viewBox="0 0 270.2 272.4" style="enable-background:new 0 0 270.2 272.4;" xml:space="preserve">
<style type="text/css">
	.st0{fill:#8494AB;}
	.st1{fill:#111B34;}
	.st2{fill:#F9F9F9;}
	.st3{fill:#CECDE9;}
	.st4{fill:#FD425F;}
	.st5{fill:#3C49B9;}
	.st6{fill:#FFFFFF;}
	.st7{fill:#EF8B67;}
	.st8{fill:#F4BCA3;}
	.st9{fill:#0400A3;}
	.st10{opacity:0.55;fill:#F9F9F9;enable-background:new    ;}
	.st11{fill:#932646;}
	.st12{fill:#B3B2DA;}
	.st13{fill:#3C4DB5;}
	.st14{fill:#4D6486;}
	.st15{fill:#C8CED9;}
</style>
<ellipse class="st0" cx="155.2" cy="258.7" rx="115.3" ry="7.7"/>
<path class="st1" d="M88.2,46.4H222c3.1,0,5.6,2.5,5.6,5.6v79c0,3.1-2.5,5.6-5.6,5.6H88.2c-3.1,0-5.6-2.5-5.6-5.6V52
	C82.6,48.9,85.1,46.4,88.2,46.4z"/>
<rect x="90.9" y="52.5" class="st2" width="128.1" height="70.8"/>
<rect x="168.6" y="63.5" class="st3" width="41.4" height="52.5"/>
<rect x="172.6" y="64.4" class="st4" width="33.6" height="5.2"/>
<rect x="172.6" y="74.1" class="st5" width="33.6" height="5.2"/>
<rect x="172.6" y="83.8" class="st6" width="33.6" height="5.2"/>
<rect x="172.6" y="93.5" class="st6" width="33.6" height="5.2"/>
<rect x="172.6" y="107.2" class="st6" width="33.6" height="5.2"/>
<path class="st1" d="M122,65.9c0,0,6.8,0,7.8,4.5s0.1,9.4,1.3,12.6s4.8,11.9-3,12.4s-9.1-1.7-11-1.8s-4.8,4.5-10.4,1.9
	s-3.2-8.5-0.7-9.2s1.5-4.9,0.9-6.3c-1.2-2.9-2.1-11.9,6.2-14.5C119.8,63.2,122,65.9,122,65.9z"/>
<path class="st7" d="M115.5,86.1c-0.5,6-0.9,13.1-3.4,18.1c0.3,2.4,1.6,7.1,7.9,6.9c5.3-0.1,6.9-3.5,7.3-5.9
	c-2.6-4.8-4.1-10-4.3-15.4C120.5,89.8,117.2,87.3,115.5,86.1z"/>
<path class="st8" d="M117.2,68.2c0,0,8.6,0.4,10.3,2.2c1.8,1.8,1.7,5.4,2.2,10.7s-2.8,11.1-5.6,11.9s-10.7-4.2-11.8-12.3
	S113.9,67.9,117.2,68.2z"/>
<path class="st8" d="M181.6,92.3c2.1-2.3,4-4.7,5.8-7.3c1.6-2.5,7.6-10.8,8.8-9.6s-3.9,8.2-3.9,8.2s5-8.9,6.7-8s-4.6,8.8-4.6,8.8
	s5.4-7.6,6.4-6.5s-0.2,2.7-4.6,8.2c0,0,3.8-4.8,4.8-3.3s-3.4,5.7-5,6.6s-9.1,4.9-11.1,6.9C184.9,96.6,181.3,94.7,181.6,92.3z"/>
<path class="st7" d="M195.6,84.7c-0.4-1.1-2.2-1-3.3-1c-1.3,0.1-2.5,0.6-3.4,1.6c-0.4,0.6-0.8,1.1-1.3,1.6c-0.9,1-0.3,1.8,0,2.9
	c0.1,0.3,2.2,0.6,4.2-0.2c1.3-0.6,2.4-1.6,3.2-2.8C195.4,86.2,195.6,85.5,195.6,84.7z"/>
<path class="st8" d="M188.5,86c0,0,4.8-3.2,6.3-2.2s0.2,2.2-4.9,4.3c0,0-1.6,2.5-2.8,2.7c-1-1.7-0.4-3.8,1.3-4.8
	C188.5,86.1,188.5,86.1,188.5,86z"/>
<path class="st1" d="M121.1,66.2c0,0,2.4,10.2-5,11.5c-1.2,1.7-1.5,3.8-0.9,5.8c1,3.2,3.4,10-0.8,11.6s-7.4-1-5.7-7.6
	s1.7-10.3,2.8-15.1S114.5,64,121.1,66.2z"/>
<path class="st1" d="M116.9,65.9c0,0,0.5,9.3,8.6,9.6s8.1-5.3,7.1-6.7S127.9,62,116.9,65.9z"/>
<path class="st9" d="M125,100.1c0,0-2.9,3.6-4.3,4.2s-7.1-4-7.1-4s-7.8,4.4-14.3,5.1c0,0-5.8,2.1-7.9,18h51.8c0,0-0.4-3.3,0-3.3
	s2.9,3.3,6.9,3.3h17.6c0,0,14.5-14,21.1-23.8l-6.2-6.2c0,0-21.1,22.6-22.9,22.6s-15.2-11.3-15.8-11.6S129.5,103.9,125,100.1z"/>
<path class="st10" d="M197.8,123.4h-15.1c0,0,35.6-27.8,36.3-28.6v8C215.1,106.8,197.8,123.4,197.8,123.4z"/>
<path class="st10" d="M219,59.8V71c-2.7,3.3-63,48.8-66.7,52.3h-27.2C132.4,117.6,216.3,61.9,219,59.8z"/>
<path class="st10" d="M163.9,52.5h14.3l-0.3,0.3c-5.9,5.1-64.8,63.5-71.4,70.6H92.8C101.6,114.2,147.4,68.4,163.9,52.5z"/>
<path class="st10" d="M90.9,83.6V69.8c7.2-7.1,14.7-14.6,21.5-21.3h14C116.1,58.5,102.4,72.1,90.9,83.6z"/>
<path class="st11" d="M135.4,136.9c0,0-1.6-2.4-6.6-1.6s-7.9,9.2-7.9,9.2H135C135,144.5,136.3,138,135.4,136.9z"/>
<path class="st11" d="M174.8,136.9c0,0,1.6-2.4,6.6-1.6s7.9,9.2,7.9,9.2h-14.1C175.2,144.5,174,138,174.8,136.9z"/>
<path class="st4" d="M135.6,112.8c-3.1,0.1-6,1.1-8.6,2.8c-3.6,2.7-17.8,25.3-18.4,27.1s3,3.3,7.6,3.3s6.8,0.4,8.6-1.5
	s12.2-10.6,14.9-16.9S138.2,112.4,135.6,112.8z"/>
<path class="st4" d="M175.5,112.8c3.1,0.1,6,1.1,8.6,2.8c3.6,2.7,17.8,25.3,18.4,27.1s-2.9,3.3-7.6,3.3s-6.9,0.4-8.6-1.5
	s-12.2-10.6-14.9-16.9S172.9,112.4,175.5,112.8z"/>
<polygon class="st7" points="159.7,99.4 151.4,99.4 149.9,107.1 161.2,107.1 "/>
<path class="st1" d="M155.6,76.6h-0.2c-4.5,0-10.8,2.6-10.8,10s1.8,17,10.8,17h0.1c9,0,10.8-9.7,10.8-17S160.1,76.6,155.6,76.6z"/>
<path d="M143,227.1l-6.8,4.2c0,0,2.4,4.2,1.5,5.4s-6.3,7.3-6.5,10.3s1.5,4.8,2.3,4.5s16.9-11.7,16.5-13.7S143,227.1,143,227.1z"/>
<path d="M167.4,227.1l6.8,4.2c0,0-2.4,4.2-1.5,5.4s6.3,7.3,6.5,10.3s-1.5,4.8-2.3,4.5s-16.9-11.7-16.5-13.7S167.4,227.1,167.4,227.1
	z"/>
<rect x="66.1" y="144.5" class="st4" width="6" height="114.2"/>
<rect x="237.8" y="140.5" class="st4" width="6" height="114.2"/>
<rect x="55.1" y="144.5" class="st12" width="200.1" height="3"/>
<path class="st9" d="M170.7,162.6c-4.3-2.5-26.8-2.5-31.1,0s-26.6,18.8-26.6,22.7s24.1,49.2,24.1,49.2l8.8-4.5
	c0,0-14.8-37.9-12.9-39.5s22-2.9,22-2.9s20.3,1.2,22.1,2.9S164.3,230,164.3,230l8.9,4.5c0,0,24.1-45.3,24.1-49.2
	S175,165.1,170.7,162.6z"/>
<path class="st13" d="M160.7,104.1c-0.4-0.4-3.6-0.1-5.2-0.1s-4.8-0.2-5.2,0.1s-2.9,6.1-2.9,6.1l8.1,1.7l8.1-1.7
	C163.6,110.2,161.1,104.5,160.7,104.1z"/>
<path class="st1" d="M179.8,251.5c-2.1-3-18.3-14.8-18.3-14.8h-12.7c0,0-16.2,11.8-18.3,14.8s-1.7,6.2,0.8,6.2h7.9
	c0.5,0,0.9-0.3,1-0.8c0.1-0.7,0.2-1.4,0.2-2.2c0-0.5-0.4-0.9-0.9-1c-0.5-0.1-1.1-0.2-1.1-0.4c-0.1-0.4,0.2-1.2,1.8-2.5
	c2.9-2.4,9.9-7.8,9.9-7.8l4.9,0.1l4.9-0.1c0,0,7,5.3,9.9,7.8c1.6,1.3,1.9,2.1,1.8,2.5c0,0.2-0.6,0.3-1.1,0.4c-0.5,0.1-0.9,0.5-0.9,1
	c0,0.7,0.1,1.5,0.2,2.2c0.1,0.5,0.5,0.8,1,0.8h7.9C181.5,257.7,181.9,254.6,179.8,251.5z"/>
<polygon class="st1" points="155.2,187.6 149.4,187.6 152.3,240.1 155.2,240.1 158.1,240.1 161,187.6 "/>
<path class="st1" d="M155.2,185.3h-15.5c0,0,1.6,17.9,15.5,17.9s15.5-17.9,15.5-17.9H155.2z"/>
<path class="st12" d="M182.3,113.8c-3.9-5.3-27.2-6.3-27.2-6.3s-23.2,1-27.2,6.3s6.9,48.8,10.5,55.8s16.6,6.9,16.6,6.9
	s13,0.1,16.6-6.9S186.3,119,182.3,113.8z"/>
<path class="st1" d="M163.1,160.2c-1.3-0.9-14.5-0.9-15.8,0c-1.5,1,2.2,25.8,2.8,28.3s9.7,2.5,10.3,0S164.6,161.2,163.1,160.2z"/>
<rect x="124.8" y="182.4" class="st1" width="60.8" height="8.1"/>
<rect x="66.6" y="138.5" class="st9" width="37.6" height="6"/>
<rect x="62.5" y="132.5" class="st4" width="37.6" height="6"/>
<path class="st0" d="M232.4,126.3h-2.1v1.2h1.6c1.8,0,3.2,1.4,3.2,3.2v0.1c0,1.8-1.4,3.2-3.2,3.2h-1.6v1.2h2.1c2.4,0,4.4-2,4.4-4.4
	v-0.1C236.8,128.2,234.8,126.3,232.4,126.3z"/>
<path class="st0" d="M229.6,140.5h-9.7c-1.4,0-2.6-1.2-2.6-2.6c0,0,0,0,0,0v-14.3h14.8v14.3C232.2,139.4,231,140.5,229.6,140.5
	C229.6,140.5,229.6,140.5,229.6,140.5z"/>
<path class="st14" d="M224.2,138.6v-13.7h-5.6v12.3c0,1.2,1,2.2,2.2,2.2h0h3.5C224.3,139.1,224.3,138.8,224.2,138.6z"/>
<path class="st15" d="M227.6,124.8v12.9c0,0.6-0.2,1.1-0.6,1.5h1.6c1.2,0,2.2-1,2.2-2.2v0v-12.3H227.6z"/>
<path class="st9" d="M99.9,35.1h29.9c0.8,0,1.5,0.7,1.5,1.5v19.3c0,0.8-0.7,1.5-1.5,1.5H99.9c-0.8,0-1.5-0.7-1.5-1.5V36.6
	C98.4,35.8,99,35.1,99.9,35.1z"/>
<rect x="99.9" y="36.9" class="st6" width="29.9" height="18.7"/>
<polygon class="st4" points="110.4,42.4 110.4,51.5 119.3,47 "/>
<rect x="178" y="34" class="st4" width="82.1" height="4.6"/>
<rect x="222.1" y="0" class="st9" width="5.8" height="34"/>
<rect x="213.4" y="4" class="st3" width="5.8" height="30"/>
<rect x="234.4" y="3.5" transform="matrix(0.9287 -0.3709 0.3709 0.9287 10.0721 89.3174)" class="st4" width="5.8" height="30"/>
<rect x="242.1" y="3.5" transform="matrix(0.9287 -0.3709 0.3709 0.9287 10.6263 92.1904)" class="st3" width="5.8" height="30"/>
<rect x="181.7" y="28.3" class="st0" width="28.9" height="5.2"/>
<path class="st0" d="M27.2,194.1c-3.3-1.4-5.7-2.6-5.1-7.9c0.1-2.3,1.2-4.4,3-5.8c1.5-1.2,2.2-1.7,2.6-3.7c0.7-3.1-0.2-5.6,1.3-8.5
	c1.6-3,5-2.7,6.6-5.5c1.4-2.4,2-5.1,5.1-6.1c2.7-0.8,4.4,1.5,3.5,3.9c-0.5,1.4-1.7,2.6-2,4.1s0.4,2.4,1.1,3.6
	c1.7,2.8,2.5,6.2-0.7,9.1c-1.9,1.7-3.4,3.2-2.4,6.1c1.1,3.2,1.7,5.2-1.3,8.1c-2.2,2.1-4.2,2-6.7,2.1c-2.2,0.1-5.1,1.1-6.9-0.4
	L27.2,194.1z"/>
<path class="st9" d="M20.1,194c-2.4,2.5-4.4,4.5-7.9,1.5c-1.8-1.5-2.7-3.7-2.5-6c0-2.1,0.2-3-1.1-4.6c-2-2.5-4.9-3.4-6.3-6.6
	c-1.4-3.5,1.8-5.7,0.6-8.8c-1-2.7-2.9-5.3-1.1-7.6c1.4-1.9,4.4-0.8,5.6,1.4c0.7,1.3,0.8,2.7,1.6,3.9c0.8,0.9,1.9,1.6,3.1,1.8
	c2.6,0.9,4.9,2.5,5.1,5.8c0.1,2,0.3,3.7,2.3,4.6s3.2,1.5,3.6,4.6c0.3,2.4-0.5,3.8-1.3,5.7s-1.4,4.7-3.1,5.8L20.1,194z"/>
<path class="st6" d="M29.6,190.7h-0.3c-0.1,0-0.2-0.1-0.2-0.3c0-0.1,0.1-0.2,0.2-0.2c0,0,0,0,0,0c1.6,0.2,3.3-1.3,4.3-2.6
	c0.6-1,0.8-2.1,0.6-3.2l-0.1-1c-0.2-2.6-0.3-4.9,1.7-6.9c2.2-2.3,2.8-3.7,2.7-6.8c0-0.3,0-0.5,0-0.8c-0.1-1-0.1-2.1,0.1-3.1
	c0.1-0.5,0.3-1.1,0.6-1.6c0.3-0.6,0.5-1.2,0.6-1.9c0-0.1,0.1-0.2,0.2-0.2l0,0c0.1,0,0.2,0.1,0.2,0.2c0,0,0,0,0,0
	c-0.1,0.7-0.3,1.5-0.7,2.1c-0.2,0.4-0.4,0.9-0.6,1.4c-0.1,1-0.2,2-0.1,3c0,0.3,0,0.6,0,0.8c0.1,3.3-0.5,4.8-2.8,7.2
	c-1.9,1.9-1.8,3.9-1.6,6.5l0.1,1c0.2,1.2,0,2.5-0.7,3.6C33,189.2,31.4,190.7,29.6,190.7z"/>
<path class="st6" d="M35.3,183.8c-0.4,0-0.8-0.2-1-0.5c-0.1-0.1-0.1-0.3,0-0.4c0.1-0.1,0.3-0.1,0.4,0c0.2,0.3,0.5,0.4,0.8,0.4
	c1-0.3,2.2-2.5,2.4-3.4c0.5-2.5,1.2-3.7,3.6-4.7c0.1-0.1,0.3,0,0.3,0.1c0,0,0,0,0,0c0.1,0.1,0,0.3-0.1,0.3c0,0,0,0,0,0
	c-2.3,0.9-2.8,2.1-3.3,4.3c-0.2,0.8-1.3,3.4-2.7,3.7C35.5,183.8,35.4,183.8,35.3,183.8z"/>
<path class="st6" d="M20.3,192.7c-0.5,0-0.9-0.1-1.3-0.3c-1.7-0.9-2.5-3.6-3.2-6c-0.3-1-0.6-2-1.1-3c-1-1.9-2.5-3.6-4.4-4.8
	c-2.4-1.8-3-3.1-3.5-6.1c-0.4-2.4-0.8-4.8-1.9-6.2c-0.1-0.1-0.1-0.2,0-0.3c0,0,0,0,0,0c0.1-0.1,0.3-0.1,0.4,0c0,0,0,0,0,0
	c1.2,1.5,1.7,4,2,6.5c0.4,2.8,1,4,3.3,5.7c1.9,1.3,3.4,3,4.5,4.9c0.5,1,0.9,2,1.1,3.1c0.7,2.3,1.5,4.9,3,5.7
	c0.7,0.3,1.4,0.3,2.1,0.1c0.1-0.1,0.3,0,0.3,0.1c0.1,0.1,0,0.3-0.1,0.3c0,0-0.1,0-0.1,0C21.1,192.6,20.7,192.7,20.3,192.7z"/>
<path class="st6" d="M12.6,190.4c0,0-0.1,0-0.1,0c-0.1-0.1-0.1-0.2,0-0.3c0,0,0,0,0,0c0.7-1,0.3-2.5-0.2-4.1c-0.5-1.3-0.7-2.6-0.5-4
	c0-0.1,0.2-0.2,0.3-0.2c0.1,0,0.2,0.2,0.2,0.3c-0.2,1.3,0,2.5,0.5,3.7c0.5,1.6,1,3.4,0.1,4.5C12.8,190.4,12.7,190.5,12.6,190.4z"/>
<path class="st6" d="M15.1,193.8L15.1,193.8c-0.4-0.1-0.7-0.3-1-0.5c-0.4-0.3-0.9-0.5-1.4-0.5c-0.3,0-0.6,0-0.9,0
	c-0.7,0.1-1.4,0-2-0.3c-1.3-0.8-2.5-1.8-3.4-3c-0.2-0.2-0.4-0.5-0.6-0.8c-0.3-0.5-0.7-1-1.1-1.4c-0.1,0-0.2-0.2-0.2-0.3
	c0-0.1,0.1-0.2,0.3-0.2c0,0,0,0,0,0c0.4,0.1,0.8,0.7,1.4,1.6c0.2,0.3,0.4,0.6,0.6,0.8c0.9,1.2,2,2.1,3.2,2.9
	c0.6,0.3,1.2,0.3,1.8,0.2c0.3,0,0.7,0,1,0c0.6,0.1,1.1,0.3,1.6,0.6c0.3,0.2,0.5,0.3,0.8,0.4c0.1,0.1,0.2,0.2,0.1,0.3
	C15.3,193.8,15.2,193.8,15.1,193.8z"/>
<path class="st12" d="M19.1,194.6c-3.6-3-7.8-5-6.8-10.7c0.8-4.7,6.2-5.9,4.5-11c-1.1-3.2-3.9-7-2.9-10.6c1-3.9,6.1-2.3,7.2-5.9
	c0.9-3.1-2.3-6.6,0.6-9.1c2.5-2.2,7-0.1,8.4,2.4c1.7,3.2-1.1,5.6-0.7,8.8c0.3,2,2.3,2.3,3.7,3.5c1.5,1.2,2.7,2.8,3.5,4.6
	c1.8,5.2-3.4,7.1-5,11.1c-1.5,3.8,3.6,5,4,8.8c0.4,4.2-4.1,7.6-7.7,8.2C25.2,195.2,21.4,196.5,19.1,194.6z"/>
<path class="st6" d="M23.2,195.8L23.2,195.8c-0.2,0-0.3-0.2-0.2-0.3c1.7-6.6,1.9-13.5,0.5-20.1c-1.5-6.5-0.1-11.1,1-14.8
	c0.7-2.2,1.2-4.1,0.9-5.7c0-0.1,0.1-0.3,0.2-0.3c0.1,0,0.2,0.1,0.3,0.2c0.3,1.8-0.3,3.7-0.9,6c-1.1,3.6-2.5,8.1-1,14.5
	c1.4,6.7,1.3,13.7-0.5,20.4C23.4,195.8,23.3,195.8,23.2,195.8z"/>
<path class="st6" d="M23.8,175.3c-0.1,0-0.2-0.1-0.2-0.2s0.1-0.2,0.2-0.2c2.1-0.3,4.4-2.2,4.7-4.5c0-0.3,0-0.6,0.1-0.9
	c0.1-1.5,0.2-3.4,1.3-4.3c0.6-0.5,1.4-0.6,2.1-0.5c0.1,0,0.2,0.1,0.2,0.3c0,0,0,0,0,0c0,0.1-0.1,0.2-0.3,0.2c-0.6-0.1-1.3,0-1.8,0.4
	c-0.9,0.8-1,2.6-1.1,4c0,0.3,0,0.6-0.1,0.9C28.7,173,26.2,175,23.8,175.3L23.8,175.3z"/>
<path class="st6" d="M22.3,175.4c-0.9,0-1.8-0.3-2.5-0.9c-1-0.9-1.5-2.4-1.5-4.5c0-0.2,0-0.4,0-0.7c0.1-1.4,0.2-3.6-0.7-4.6
	c-0.3-0.3-0.7-0.5-1.2-0.5c-0.1,0-0.3-0.1-0.2-0.3c0-0.1,0.1-0.2,0.3-0.2l0,0c0.6,0,1.1,0.2,1.5,0.7c1,1.1,0.9,3.4,0.8,5
	c0,0.2,0,0.5,0,0.7c0,1.9,0.4,3.3,1.3,4.1c0.9,0.7,2.1,1,3.3,0.7c0.1,0,0.3,0,0.3,0.2c0,0.1,0,0.3-0.2,0.3c0,0,0,0-0.1,0
	C23.1,175.4,22.7,175.4,22.3,175.4z"/>
<path class="st6" d="M25.3,191.7c-0.3,0-0.6-0.1-0.9-0.2c-0.1-0.1-0.2-0.2-0.1-0.3c0-0.1,0.2-0.2,0.3-0.1c0,0,0,0,0,0
	c1.5,0.6,3.8-1.1,4.7-2.2c0.4-0.6,0.7-1.3,0.9-2c0.5-1.4,0.9-2.8,2.2-3.1c0.1,0,0.3,0,0.3,0.2c0,0.1,0,0.3-0.2,0.3
	c-1,0.2-1.4,1.5-1.8,2.8c-0.2,0.7-0.5,1.5-0.9,2.1C28.9,190.2,27,191.7,25.3,191.7z"/>
<path class="st6" d="M23.1,191.6c-0.3,0-0.7-0.1-1-0.2c-1.8-0.6-3.4-2.9-4-4.3c-0.3-0.9-0.4-1.9-0.4-2.9c-0.1-1.8-0.1-3.6-1.3-4.1
	c-0.1-0.1-0.2-0.2-0.1-0.3c0.1-0.1,0.2-0.2,0.3-0.1c1.4,0.7,1.5,2.8,1.5,4.6c0,0.9,0.1,1.8,0.4,2.7c0.5,1.2,2,3.4,3.6,4
	c0.6,0.2,1.3,0.2,1.9-0.1c0.1-0.1,0.3,0,0.3,0.1c0,0,0,0,0,0c0.1,0.1,0,0.3-0.1,0.3C23.9,191.5,23.5,191.6,23.1,191.6z"/>
<path class="st4" d="M7.2,193.1c-1.9,5.3-2.9,10.8-2.8,16.4c0,17.4,8.6,31.5,19.3,31.5S43,226.9,43,209.5c0-5.6-0.9-11.2-2.8-16.4
	H7.2z"/>
<path class="st9" d="M42.2,200.6c-0.4-2.5-1.1-5.1-2-7.5h-33c-0.9,2.4-1.6,4.9-2,7.5H42.2z"/>
</svg>
